<?xml version="1.0" encoding="utf-8"?>
<!-- Generator: Adobe Illustrator 21.1.0, SVG Export Plug-In . SVG Version: 6.00 Build 0)  -->
<svg version="1.1" id="Layer_1" xmlns="http://www.w3.org/2000/svg" xmlns:xlink="http://www.w3.org/1999/xlink" x="0px" y="0px"
	 viewBox="0 0 206.8 60.4" style="enable-background:new 0 0 206.8 60.4;" xml:space="preserve">
<style type="text/css">
	.st0{fill:#006837;}
</style>
<path d="M31,34.5c-1.4,1.5-3.4,2.8-6,3.7c-2.6,0.9-5.5,1.4-8.7,1.4c-4.9,0-8.7-1.5-11.6-4.5c-2.9-3-4.5-7.1-4.7-12.4l0-3.2
	c0-3.6,0.6-6.8,1.9-9.6c1.3-2.7,3.1-4.8,5.5-6.3c2.4-1.5,5.2-2.2,8.3-2.2c4.6,0,8.2,1.1,10.7,3.2c2.6,2.1,4,5.3,4.5,9.5h-8.6
	c-0.3-2.1-1-3.5-2-4.4c-1-0.9-2.5-1.3-4.3-1.3c-2.2,0-4,1-5.2,2.8c-1.2,1.9-1.8,4.6-1.9,8.1v2.2c0,3.7,0.6,6.5,1.9,8.3
	c1.3,1.9,3.3,2.8,6,2.8c2.3,0,4.1-0.5,5.2-1.6v-5.7h-6.2v-6.1H31V34.5z"/>
<path d="M75,11.1c4.2,0,7.6,1.3,10.2,3.8c2.6,2.5,3.9,5.8,3.9,9.8l0,0.7c0,2.8-0.5,5.3-1.6,7.4c-1,2.1-2.6,3.8-4.6,5
	c-2,1.2-4.4,1.8-7.1,1.7c-3.9,0-6.9-1.2-9.1-3.6c-2.2-2.4-3.3-5.8-3.3-10l0-3.3l17,0c-0.3-1.5-1-2.8-2-3.6c-1-0.9-2.4-1.3-4-1.3
	c-2.7,0-4.8,0.9-6.4,2.8l-3.9-4.6c1.1-1.5,2.6-2.6,4.6-3.5C70.6,11.5,72.7,11.1,75,11.1 M75.9,33c2.5,0,4-1.7,4.5-5l-8.6,0l0,0.7
	c0,1.4,0.3,2.4,1,3.2C73.5,32.6,74.5,33,75.9,33"/>
<path d="M46.6,11c4.2,0,7.6,1.3,10.2,3.8c2.6,2.5,3.9,5.8,3.9,9.8l0,0.7c0,2.8-0.5,5.3-1.6,7.4c-1,2.1-2.6,3.8-4.6,5
	c-2,1.2-4.4,1.8-7.1,1.7c-3.9,0-6.9-1.2-9.1-3.6c-2.2-2.4-3.3-5.8-3.3-10l0-3.3l17,0c-0.3-1.5-1-2.8-2-3.6c-1-0.9-2.4-1.3-4-1.3
	c-2.7,0-4.8,0.9-6.4,2.8l-3.9-4.6c1.1-1.5,2.6-2.6,4.6-3.5C42.3,11.4,44.4,11,46.6,11 M47.5,33c2.5,0,4-1.7,4.5-5l-8.6,0l0,0.7
	c0,1.4,0.3,2.4,1,3.2C45.1,32.6,46.2,32.9,47.5,33"/>
<polygon points="103.6,28.8 101.2,31.3 101.2,39.1 92.6,39.1 92.6,0 101.2,0 101.2,20.8 102.1,19.6 108.5,11.6 118.8,11.6 
	109.2,22.9 119.4,39.1 109.6,39.1 "/>
<polygon class="st0" points="141.4,9 130.2,9 130.2,39.1 121.3,39.1 121.3,9 110.4,9 110.4,2.1 141.4,2.1 "/>
<path class="st0" d="M150,39.6c-4.2,0-7.6-1.3-10.3-3.8c-2.6-2.5-3.9-5.8-3.9-9.8v-0.7c0-2.8,0.5-5.3,1.6-7.5c1-2.2,2.6-3.8,4.6-5
	c2-1.2,4.4-1.8,7.1-1.8c3.9,0,6.9,1.2,9.2,3.6c2.2,2.4,3.4,5.7,3.4,10V28h-17c0.3,1.5,1,2.8,2,3.6c1,0.9,2.4,1.3,4,1.3
	c2.7,0,4.8-1,6.4-2.8l3.9,4.6c-1.1,1.5-2.6,2.6-4.5,3.5C154.4,39.2,152.3,39.6,150,39.6 M149.1,17.7c-2.5,0-4,1.7-4.5,5h8.6V22
	c0-1.4-0.3-2.4-1-3.2C151.5,18.1,150.4,17.7,149.1,17.7"/>
<polygon class="st0" points="176.2,19.2 180.2,11.6 189.1,11.6 181.9,25 189.5,39.1 180.5,39.1 176.2,31 172,39.1 163,39.1 
	170.6,25 163.4,11.6 172.4,11.6 "/>
<path class="st0" d="M201.9,4.7v6.8h4.5v6h-4.5v12.6c0,1,0.2,1.8,0.6,2.2c0.4,0.4,1.1,0.6,2.2,0.6c0.8,0,1.6-0.1,2.1-0.2v6.1
	c-1.5,0.5-3.2,0.7-4.8,0.7c-3,0-5.1-0.7-6.5-2.1c-1.4-1.4-2.1-3.5-2.1-6.3V17.5h-3.5v-6h3.5V4.7H201.9z"/>
<polygon points="60.4,60.4 35.4,48.8 38.3,42.6 60.3,52.8 81.8,42.6 84.7,48.8 "/>
</svg>
